<?xml version="1.0" encoding="UTF-8"?><svg id="Layer_1" xmlns="http://www.w3.org/2000/svg" xmlns:xlink="http://www.w3.org/1999/xlink" viewBox="0 0 2000 666.67"><defs><style>.cls-1{fill:url(#linear-gradient);}.cls-2{fill:#fff;}</style><linearGradient id="linear-gradient" x1="0" y1="333.33" x2="2000" y2="333.33" gradientUnits="userSpaceOnUse"><stop offset="0" stop-color="#5bb947"/><stop offset="1" stop-color="#389645"/></linearGradient></defs><rect class="cls-1" width="2000" height="666.67"/><path class="cls-2" d="m529.12,341.88h-81.16c.56,7.27,2.9,12.83,7.03,16.67,4.12,3.85,9.19,5.77,15.2,5.77,8.95,0,15.17-3.78,18.67-11.33h38.17c-1.96,7.69-5.49,14.61-10.59,20.76-5.11,6.15-11.5,10.98-19.19,14.47-7.69,3.5-16.29,5.24-25.8,5.24-11.47,0-21.67-2.44-30.62-7.34-8.95-4.89-15.94-11.88-20.97-20.97-5.03-9.09-7.55-19.71-7.55-31.88s2.48-22.79,7.45-31.88c4.96-9.09,11.92-16.08,20.87-20.97,8.95-4.89,19.22-7.34,30.83-7.34s21.39,2.38,30.2,7.13c8.81,4.75,15.69,11.54,20.66,20.34,4.96,8.81,7.45,19.09,7.45,30.83,0,3.36-.21,6.85-.63,10.49Zm-36.07-19.92c0-6.15-2.1-11.04-6.29-14.68-4.19-3.63-9.44-5.45-15.73-5.45s-11.08,1.75-15.2,5.24c-4.13,3.5-6.68,8.46-7.66,14.89h44.88Z"/><path class="cls-2" d="m551.25,257.05c-3.98-3.7-5.98-8.28-5.98-13.74s1.99-10.24,5.98-13.95c3.98-3.7,9.12-5.56,15.42-5.56s11.22,1.85,15.21,5.56c3.98,3.71,5.98,8.36,5.98,13.95s-1.99,10.03-5.98,13.74c-3.98,3.71-9.05,5.56-15.21,5.56s-11.43-1.85-15.42-5.56Zm33.24,17.72v117.03h-35.86v-117.03h35.86Z"/><path class="cls-2" d="m676.66,278.12c6.22,3.36,11.01,7.76,14.37,13.21v-16.57h35.86v116.82c0,10.76-2.13,20.52-6.4,29.26-4.27,8.74-10.77,15.69-19.5,20.87-8.74,5.17-19.61,7.76-32.61,7.76-17.34,0-31.39-4.09-42.15-12.27-10.77-8.18-16.92-19.26-18.46-33.24h35.44c1.12,4.47,3.78,8,7.97,10.59,4.19,2.59,9.36,3.88,15.52,3.88,7.41,0,13.32-2.13,17.72-6.4,4.4-4.27,6.61-11.08,6.61-20.45v-16.57c-3.5,5.45-8.32,9.89-14.47,13.32-6.15,3.43-13.35,5.14-21.6,5.14-9.65,0-18.39-2.48-26.22-7.45-7.83-4.96-14.02-12.02-18.56-21.18-4.55-9.16-6.82-19.75-6.82-31.77s2.27-22.58,6.82-31.67c4.54-9.09,10.73-16.08,18.56-20.97,7.83-4.89,16.57-7.34,26.22-7.34,8.25,0,15.48,1.68,21.71,5.03Zm6.92,33.98c-4.96-5.17-11.01-7.76-18.14-7.76s-13.18,2.55-18.14,7.66c-4.97,5.11-7.45,12.13-7.45,21.08s2.48,16.04,7.45,21.29c4.96,5.24,11.01,7.86,18.14,7.86s13.18-2.59,18.14-7.76c4.96-5.17,7.45-12.23,7.45-21.18s-2.48-16.01-7.45-21.18Z"/><path class="cls-2" d="m857.13,286.83c8.11,8.88,12.16,21.08,12.16,36.6v68.37h-35.65v-63.55c0-7.83-2.03-13.91-6.08-18.25-4.06-4.33-9.51-6.5-16.36-6.5s-12.3,2.17-16.36,6.5c-4.06,4.34-6.08,10.42-6.08,18.25v63.55h-35.86v-155.2h35.86v53.9c3.63-5.17,8.6-9.3,14.89-12.37,6.29-3.07,13.35-4.61,21.18-4.61,13.42,0,24.19,4.44,32.3,13.32Z"/><path class="cls-2" d="m944.59,278.12c6.29-3.36,13.49-5.03,21.6-5.03,9.65,0,18.38,2.45,26.22,7.34,7.83,4.9,14.02,11.89,18.56,20.97,4.54,9.09,6.82,19.65,6.82,31.67s-2.27,22.62-6.82,31.77c-4.55,9.16-10.73,16.22-18.56,21.18-7.83,4.97-16.57,7.45-26.22,7.45-8.25,0-15.45-1.65-21.6-4.93-6.15-3.28-10.98-7.66-14.47-13.11v16.36h-35.86v-155.2h35.86v54.74c3.36-5.45,8.18-9.86,14.47-13.21Zm29.26,33.87c-4.96-5.1-11.08-7.66-18.35-7.66s-13.18,2.59-18.14,7.76c-4.97,5.17-7.45,12.24-7.45,21.18s2.48,16.01,7.45,21.18c4.96,5.17,11.01,7.76,18.14,7.76s13.21-2.62,18.25-7.86c5.03-5.24,7.55-12.34,7.55-21.29s-2.48-15.97-7.45-21.08Z"/><path class="cls-2" d="m1058.99,386.13c-9.16-4.89-16.36-11.88-21.6-20.97-5.24-9.09-7.86-19.71-7.86-31.88s2.65-22.61,7.97-31.77c5.31-9.16,12.58-16.18,21.81-21.08,9.23-4.89,19.57-7.34,31.04-7.34s21.81,2.45,31.04,7.34c9.23,4.9,16.5,11.92,21.81,21.08,5.31,9.16,7.97,19.75,7.97,31.77s-2.69,22.62-8.07,31.77c-5.38,9.16-12.72,16.19-22.02,21.08-9.3,4.9-19.68,7.34-31.14,7.34s-21.78-2.44-30.93-7.34Zm48.45-31.25c4.82-5.03,7.24-12.23,7.24-21.6s-2.34-16.57-7.03-21.6c-4.69-5.03-10.45-7.55-17.3-7.55s-12.79,2.48-17.41,7.45c-4.61,4.96-6.92,12.2-6.92,21.71s2.27,16.57,6.82,21.6c4.54,5.03,10.24,7.55,17.09,7.55s12.69-2.52,17.51-7.55Z"/><path class="cls-2" d="m1221.84,279.07c6.29-3.7,13.28-5.56,20.97-5.56v37.96h-9.86c-8.95,0-15.66,1.92-20.13,5.77-4.48,3.85-6.71,10.59-6.71,20.24v54.32h-35.86v-117.03h35.86v19.5c4.19-6.43,9.44-11.5,15.73-15.21Z"/><path class="cls-2" d="m1326.18,278.12c6.22,3.36,11.01,7.76,14.37,13.21v-16.57h35.86v116.82c0,10.76-2.13,20.52-6.4,29.26-4.27,8.74-10.77,15.69-19.5,20.87-8.74,5.17-19.61,7.76-32.61,7.76-17.34,0-31.39-4.09-42.15-12.27-10.77-8.18-16.92-19.26-18.46-33.24h35.44c1.12,4.47,3.78,8,7.97,10.59,4.19,2.59,9.36,3.88,15.52,3.88,7.41,0,13.32-2.13,17.72-6.4,4.4-4.27,6.61-11.08,6.61-20.45v-16.57c-3.5,5.45-8.32,9.89-14.47,13.32-6.15,3.43-13.35,5.14-21.6,5.14-9.65,0-18.39-2.48-26.22-7.45-7.83-4.96-14.02-12.02-18.56-21.18-4.55-9.16-6.82-19.75-6.82-31.77s2.27-22.58,6.82-31.67c4.54-9.09,10.73-16.08,18.56-20.97,7.83-4.89,16.57-7.34,26.22-7.34,8.25,0,15.48,1.68,21.71,5.03Zm6.92,33.98c-4.96-5.17-11.01-7.76-18.14-7.76s-13.18,2.55-18.14,7.66c-4.97,5.11-7.45,12.13-7.45,21.08s2.48,16.04,7.45,21.29c4.96,5.24,11.01,7.86,18.14,7.86s13.18-2.59,18.14-7.76c4.96-5.17,7.45-12.23,7.45-21.18s-2.48-16.01-7.45-21.18Z"/><path class="cls-2" d="m1424.75,386.13c-9.16-4.89-16.36-11.88-21.6-20.97-5.24-9.09-7.86-19.71-7.86-31.88s2.65-22.61,7.97-31.77c5.31-9.16,12.58-16.18,21.81-21.08,9.23-4.89,19.57-7.34,31.04-7.34s21.81,2.45,31.04,7.34c9.23,4.9,16.5,11.92,21.81,21.08,5.31,9.16,7.97,19.75,7.97,31.77s-2.69,22.62-8.07,31.77c-5.38,9.16-12.72,16.19-22.02,21.08-9.3,4.9-19.68,7.34-31.14,7.34s-21.78-2.44-30.93-7.34Zm48.45-31.25c4.82-5.03,7.24-12.23,7.24-21.6s-2.34-16.57-7.03-21.6c-4.69-5.03-10.45-7.55-17.3-7.55s-12.79,2.48-17.41,7.45c-4.61,4.96-6.92,12.2-6.92,21.71s2.27,16.57,6.82,21.6c4.54,5.03,10.24,7.55,17.09,7.55s12.69-2.52,17.51-7.55Z"/><path class="cls-2" d="m1558.34,386.13c-9.16-4.89-16.36-11.88-21.6-20.97-5.24-9.09-7.86-19.71-7.86-31.88s2.65-22.61,7.97-31.77c5.31-9.16,12.58-16.18,21.81-21.08,9.23-4.89,19.57-7.34,31.04-7.34s21.81,2.45,31.04,7.34c9.23,4.9,16.5,11.92,21.81,21.08,5.31,9.16,7.97,19.75,7.97,31.77s-2.69,22.62-8.07,31.77c-5.38,9.16-12.72,16.19-22.02,21.08-9.3,4.9-19.68,7.34-31.14,7.34s-21.78-2.44-30.93-7.34Zm48.45-31.25c4.82-5.03,7.24-12.23,7.24-21.6s-2.34-16.57-7.03-21.6c-4.69-5.03-10.45-7.55-17.3-7.55s-12.79,2.48-17.41,7.45c-4.61,4.96-6.92,12.2-6.92,21.71s2.27,16.57,6.82,21.6c4.54,5.03,10.24,7.55,17.09,7.55s12.69-2.52,17.51-7.55Z"/><path class="cls-2" d="m1669.29,301.4c4.54-9.09,10.73-16.08,18.56-20.97,7.83-4.89,16.57-7.34,26.22-7.34,7.69,0,14.71,1.61,21.08,4.82,6.36,3.22,11.36,7.55,15,13v-54.32h35.86v155.2h-35.86v-16.78c-3.36,5.59-8.15,10.07-14.37,13.42-6.22,3.36-13.46,5.03-21.71,5.03-9.65,0-18.39-2.48-26.22-7.45-7.83-4.96-14.02-12.02-18.56-21.18-4.55-9.16-6.82-19.75-6.82-31.77s2.27-22.58,6.82-31.67Zm73.4,10.7c-4.96-5.17-11.01-7.76-18.14-7.76s-13.18,2.55-18.14,7.66c-4.97,5.11-7.45,12.13-7.45,21.08s2.48,16.04,7.45,21.29c4.96,5.24,11.01,7.86,18.14,7.86s13.18-2.59,18.14-7.76c4.96-5.17,7.45-12.23,7.45-21.18s-2.48-16.01-7.45-21.18Z"/><path class="cls-2" d="m214,307.5v74.23c0,6.26,5.07,11.33,11.33,11.33h13.37c6.26,0,11.33-5.07,11.33-11.33v-40.03c0-10.1,12.21-15.15,19.34-8.01l57.78,57.78c2.13,2.13,5.01,3.32,8.01,3.32h46.8c6.26,0,11.33-5.07,11.33-11.33v-76.01c0-3.01-1.19-5.89-3.32-8.01l-78.34-78.34c-4.43-4.43-11.6-4.43-16.02,0l-10.47,10.47c-4.43,4.43-4.43,11.6,0,16.02l68.04,68.04c2.13,2.13,3.32,5.01,3.32,8.01v42.47l-94.59-94.59c-4.39-4.39-11.5-4.43-15.94-.08l-28.56,27.98c-2.18,2.13-3.4,5.05-3.4,8.09Z"/></svg>